<?xml version="1.0" encoding="UTF-8" standalone="no"?>
<!-- Created with Inkscape (http://www.inkscape.org/) -->

<svg
   version="1.1"
   id="svg2"
   width="5333.3335"
   height="2000"
   viewBox="0 0 5333.3335 2000"
   sodipodi:docname="vecteezy_samsung-logo-on-transparent-background_14018566.eps"
   xmlns:inkscape="http://www.inkscape.org/namespaces/inkscape"
   xmlns:sodipodi="http://sodipodi.sourceforge.net/DTD/sodipodi-0.dtd"
   xmlns="http://www.w3.org/2000/svg"
   xmlns:svg="http://www.w3.org/2000/svg">
  <defs
     id="defs6" />
  <sodipodi:namedview
     id="namedview4"
     pagecolor="#ffffff"
     bordercolor="#000000"
     borderopacity="0.25"
     inkscape:showpageshadow="2"
     inkscape:pageopacity="0.0"
     inkscape:pagecheckerboard="0"
     inkscape:deskcolor="#d1d1d1" />
  <g
     id="g8"
     inkscape:groupmode="layer"
     inkscape:label="ink_ext_XXXXXX"
     transform="matrix(1.3333333,0,0,-1.3333333,0,2000)">
    <g
       id="g10"
       transform="scale(0.1)">
      <path
         d="M 40000,0 H 0 V 15000 H 40000 V 0"
         style="fill:#ffffff;fill-opacity:1;fill-rule:nonzero;stroke:none"
         id="path12" />
      <path
         d="m 21754.2,7689.23 c 0,0 -352.9,218.32 -571.4,302.71 0,0 -675.4,313.04 -809.6,462.05 0,0 -263,248.09 -109,536.24 0,0 64.4,188.53 342.7,188.53 0,0 362.2,-19.89 362.2,-317.65 V 8441.1 h 1298.1 l -2.3,618.62 c 0,0 99.8,1012.88 -1529.1,1057.48 0,0 -1281,84.2 -1648.4,-605.82 0,0 -144.2,-153.83 -144.2,-690 v -387.35 c 0,0 -14.7,-446.91 213.6,-734.73 0,0 129.1,-188.67 447,-397.22 0,0 645.5,-347.57 1032.7,-546.45 0,0 391,-223.13 339.4,-578.26 0,0 -31.5,-364.63 -409.2,-349.75 0,0 -345.4,15.67 -345.4,373.18 v 419.69 h -1383.2 v -609.77 c 0,0 -38.8,-1166.12 1738.9,-1166.12 0,0 1698.1,-34.6 1777.5,1196.79 v 496.19 c 0,0 59.7,754.61 -600.3,1151.65 v 0"
         style="fill:#171717;fill-opacity:1;fill-rule:evenodd;stroke:none"
         id="path14" />
      <path
         d="m 15108.4,9972.08 -434.7,-2723.92 h -101.6 l -415.3,2699.53 h -2168.4 l -108.5,-4932.57 h 1283.8 l 15.4,3716.54 h 100.9 l 680.6,-3715.76 h 1350.6 l 672.3,3714.36 h 89.3 l 31,-3715.14 h 1290.6 l -138.8,4956.96 h -2147.2 v 0"
         style="fill:#171717;fill-opacity:1;fill-rule:evenodd;stroke:none"
         id="path16" />
      <path
         d="m 7465.96,9951.61 -854.2,-4930.9 h 1382.03 l 505.95,3823.26 h 113.71 l 505.82,-3823.26 h 1381.83 l -853.94,4930.9 h -2181.2 v 0"
         style="fill:#171717;fill-opacity:1;fill-rule:evenodd;stroke:none"
         id="path18" />
      <path
         d="m 36467,7757.19 v -727.53 h 354.4 v -780.87 c 0,-381.5 -326.1,-388.56 -326.1,-388.56 -396.8,0 -381.9,362.64 -381.9,362.64 v 2700.87 c 0,278.26 352,293.14 352,293.14 338,0 340.4,-331.84 340.4,-331.84 V 8474.33 H 38107 c 42.5,801.47 -117.1,995.59 -117.1,995.59 -322.9,724.88 -1544,685.28 -1544,685.28 -1876.7,0 -1668.5,-1439.9 -1668.5,-1439.9 V 6103.82 c 40.2,-1350.32 1889.2,-1213.32 1920.7,-1211.62 822.7,91 1071,352.28 1071,352.28 228.7,169.81 287.6,404.74 287.6,404.74 65.2,137.08 81.7,573.65 81.7,573.65 V 7757.19 H 36467 v 0"
         style="fill:#171717;fill-opacity:1;fill-rule:evenodd;stroke:none"
         id="path20" />
      <path
         d="m 32153.6,6954.63 h -56.5 l -1321,3016.29 H 29196.6 V 5014.28 h 1285.7 l -77.1,3015.97 h 57.4 L 31830.7,5014.28 H 33363 v 4956.95 h -1302 l 92.6,-3016.6 v 0"
         style="fill:#171717;fill-opacity:1;fill-rule:evenodd;stroke:none"
         id="path22" />
      <path
         d="m 26057.3,6249.43 c 0,0 18.8,-406.85 -358.3,-406.85 0,0 -396.9,-21.25 -396.9,396.78 l -4,3728.55 H 23887.6 V 6269 c 0,0 -144.6,-1400.1 1831,-1400.1 0,0 1717.1,-20.4 1717.1,1335.87 v 3763 h -1378.4 v -3718.34 0"
         style="fill:#171717;fill-opacity:1;fill-rule:evenodd;stroke:none"
         id="path24" />
      <path
         d="m 4777.03,7689.36 c 0,0 -352.43,218.19 -570.95,302.58 0,0 -675.17,312.77 -809.09,462.05 0,0 -263.24,248.41 -109.1,535.97 0,0 64.3,188.62 342.24,188.62 0,0 362.45,-19.71 362.45,-317.47 V 8441.1 h 1298.61 l -2.57,618.81 c 0,0 99.22,1012.89 -1529.18,1057.29 0,0 -122.58,7.9 -302.58,-1.2 0,0 -986.41,-53 -1339.04,-594.04 -1.99,-3.91 -4.88,-7 -6.87,-10.58 0,0 -144.01,-153.64 -144.01,-690 v -387.35 c 0,0 -14.89,-446.77 213.64,-734.73 0,0 128.99,-188.67 446.9,-397.22 0,0 645.07,-347.45 1032.49,-546.18 0,0 391.39,-223.2 339.73,-578.53 0,0 -31.83,-364.63 -409.24,-349.75 0,0 -345.31,15.67 -345.31,373.18 v 419.95 H 1861.64 v -610.03 c 0,0 -38.7,-1166.12 1738.65,-1166.12 0,0 1697.96,-34.6 1777.73,1196.79 v 496.05 c 0,0 59.49,754.75 -600.99,1151.92 v 0"
         style="fill:#171717;fill-opacity:1;fill-rule:evenodd;stroke:none"
         id="path26" />
    </g>
  </g>
</svg>
